<svg width="160" height="160" viewBox="0 0 160 160" fill="none" xmlns="http://www.w3.org/2000/svg">
<rect width="160" height="160" rx="14" fill="#7E22CE"/>
<path d="M57.1334 85.3605C74.3998 68.1279 107.673 36.0928 119.426 24.3625C128.567 15.2392 107.136 18.0999 97.1588 19.8221C94.0271 20.3626 91.1661 21.833 88.8243 23.9815C79.687 32.3649 55.839 54.3316 51.2554 59.4236C45.5598 65.7509 39.867 102.593 57.1334 85.3605Z" fill="black" fill-opacity="0.2"/>
<path d="M70.2365 93.8412L64.538 92.7037C63.6497 92.5264 63.0101 91.7465 63.0101 90.8407C63.0101 90.3361 63.2108 89.8524 63.5679 89.496L79.4555 73.6394C81.512 71.5869 84.7302 71.2683 87.1492 72.8778C90.4273 75.059 90.8135 79.7272 87.9383 82.4174L78.1343 91.5908C76.0185 93.5705 73.0779 94.4083 70.2365 93.8412Z" fill="black" fill-opacity="0.2"/>
<path d="M102.54 76.7978C85.5325 94.2856 52.7406 126.813 41.1633 138.717C32.159 147.975 53.545 144.796 63.4956 142.925C66.6189 142.338 69.4578 140.825 71.7672 138.642C80.7787 130.123 104.297 107.804 108.804 102.644C114.405 96.2327 119.548 59.3099 102.54 76.7978Z" fill="black" fill-opacity="0.2"/>
<path d="M57.1334 80.3605C74.3998 63.1279 107.673 31.0928 119.426 19.3625C128.567 10.2392 107.136 13.0999 97.1588 14.8221C94.0271 15.3626 91.1661 16.833 88.8243 18.9815C79.687 27.3649 55.839 49.3316 51.2554 54.4236C45.5598 60.7509 39.867 97.5931 57.1334 80.3605Z" fill="white"/>
<path d="M70.2365 88.8412L64.538 87.7037C63.6497 87.5264 63.0101 86.7465 63.0101 85.8407C63.0101 85.3361 63.2108 84.8524 63.5679 84.496L79.4555 68.6394C81.512 66.5869 84.7302 66.2683 87.1492 67.8778C90.4273 70.059 90.8135 74.7272 87.9383 77.4174L78.1343 86.5908C76.0185 88.5705 73.0779 89.4083 70.2365 88.8412Z" fill="white"/>
<path d="M102.54 71.7978C85.5325 89.2856 52.7406 121.813 41.1633 133.717C32.159 142.975 53.545 139.796 63.4956 137.925C66.6189 137.338 69.4578 135.825 71.7672 133.642C80.7787 125.123 104.297 102.804 108.804 97.6442C114.405 91.2327 119.548 54.3099 102.54 71.7978Z" fill="white"/>
</svg>
